# xmcd
#
# Track frame offsets:
#	150
#	14780
#	25865
#	38703
#	51555
#	63160
#	75543
#	86090
#	98908
#	116343
#	132058
#	146853
#	158710
#	174825
#	189878
#	204990
#	215160
#	229500
#	237833
#	249673
#	261280
#	275850
#	289665
#	299550
#
# Disc length: 4174 seconds
#
# Revision: 0
# Processed by: cddbd v1.4PL0 Copyright (c) Steve Scherf et al.
# Submitted via: dBpowerAMP V4.0
#
DISCID=61104c18
DTITLE=Various Artist - Johnny Gimble'sTexas Honky Tonk Hits
DYEAR=1900
DGENRE=Country
TTITLE0=Forth Worth Hambone Blues - Jonny Gimble and The Texas Swing Pioneers
TTITLE1=Waltz Across Texas - Mac Wiseman
TTITLE2=Smoke! Smoke! Smoke! (That Cigarette) - Merle Travis
TTITLE3=It Wasn't God Who Made Honky Tonk Angles - Rose Lee Maphis
TTITLE4=Bubbles In My Beer - Mac Wiseman
TTITLE5=Just An Average Day - Johnny Bond
TTITLE6=San Antonio Rose - Willis Brothers
TTITLE7=(Remember Me) I'm The One Who Loves You - Stuart Hamblen
TTITLE8=Sadie Was A Lady - Johnny Bond and Tex Ritter
TTITLE9=The Last Letter - Mac Wisemen
TTITLE10=Who Stole The Juke Box - Johnny Bond
TTITLE11=I Love You So Much It Hurts - Mac Wiseman
TTITLE12=Right Or Wrong - Jonny Gimble and The Texas Swing Pioneers
TTITLE13=Just Because - Jonny Gimble and The Texas Swing Pioneers
TTITLE14=Yesterday's Girl - Mac Wiseman
TTITLE15=Diveroce Me C.O.D. - Merle Travis
TTITLE16=My Mary - Stuart Hamblen
TTITLE17=Don't Make Love To Mary (With Mable On Your Mind) - Merle Travis
TTITLE18=Rose Of Reynosa - Johnny Bond
TTITLE19=Drivin' Nails In My Coffin - Mac Wiseman
TTITLE20=Where Honky-Tonk Angles Spread Their Wings - Rose Lee Maphis
TTITLE21=Take Me Back To Tulsa - Willis Brothers
TTITLE22=Steel Guitar Rag - Merle Travis
TTITLE23=Truck Driver's Blues - Jonny Gimble and The Texas Swing Pioneers
EXTD=
EXTT0=
EXTT1=
EXTT2=
EXTT3=
EXTT4=
EXTT5=
EXTT6=
EXTT7=
EXTT8=
EXTT9=
EXTT10=
EXTT11=
EXTT12=
EXTT13=
EXTT14=
EXTT15=
EXTT16=
EXTT17=
EXTT18=
EXTT19=
EXTT20=
EXTT21=
EXTT22=
EXTT23=
PLAYORDER=
